<?xml version="1.0" encoding="UTF-8"?>
<svg id="Camada_1" data-name="Camada 1" xmlns="http://www.w3.org/2000/svg" viewBox="0 0 2081.78 1426.59">
  <defs>
    <style>
      .cls-1 {
        fill: #e35526;
      }
    </style>
  </defs>
  <path class="cls-1" d="M1138.41,959.57c5.09,95-35.61,42.2-78.65,7.6-35.9-1.39-71.91-.74-107.85-.91-33.69-.16-69.18,3.33-103.73-.25-19.17-1.99-45.93-12.51-58.66-25.54-22.91-23.47-12.89-54.46-14.69-82.65-5.45-85.52-13.77-206.46-4.56-290.44,2.77-25.3,19.5-42.02,48.59-45.44,45.75-5.38,125.2-7.51,170.93-4.13,7.85.58,32.87,2.82,34.85,9.58-12.63,31.39,2.27,72.75,44.44,75.21,10.46.61,33.65-6.55,34.79,1.59-12.86,28.15,13.59,57.69,48.25,53.28,17.68-2.25,27.2-20.77,41.98.26l1.81,251.39c-4.79,26.78-27.89,44.93-57.51,50.45ZM1171.24,902.09v-229.75c-45.93,21.39-94.02-10.61-87.71-55.14-58.19,19.21-100.6-34.19-83.47-80.86l-189.12,11.72c-22.57,11.55-7.33,68.69-6.89,89.2,1.75,82.34-10.78,190.5-.27,268.59,3.09,22.96,27.57,36.09,52.26,38.53,64.93,6.41,142.31-4.87,208.65.07,11.11-.29,45.06,42.78,52.27,36.64l.54-39.92c24.16-5.56,49.16-14.73,53.73-39.08Z"/>
  <path class="cls-1" d="M627.76,540.64c8.13,12.26-24.76,38.71-38.01,35.64l-131.56-95.74,3.18-16.11c41.76-30.77,66.41-102.75,131.69-56.78,44.68,31.46,27.44,72.68-10.36,101.09l45.05,31.89ZM552.95,484.55c44.65-46.45-14.36-70.69-33.27-16.61l33.27,16.61Z"/>
  <path class="cls-1" d="M1309.14,352.59l-7.94,21.51,49.47,31.71c-30.07,48.64-39.15,17.49-77.88-1.3-7.92-.62-23.21,14.14-16.14,21.58,34.59,21.65,77.94,31.86,25.28,65.22-12.8-10.72-90.45-51.3-89.22-62.8l102.39-127.1c5.09-1.75,9.09.07,13.73,1.57,8.18,2.63,79,48.03,81.71,53.36,6.39,12.58-10.52,23.38-18.92,31.34l-62.47-35.09Z"/>
  <path class="cls-1" d="M907.11,217.34c22.68-4.12,77.05-.13,84.17,23.81,3.62,12.17-22.02,25.53-34.09,22.6-11.16-2.71-20.64-23.7-42.34-10.16-38.41,23.97,54.33,28.53,63.3,31.86,49.87,18.53,38.47,88.21-19.58,98.54-46.57,8.28-139.86-12.91-69.09-52.31,13.1,13.64,69.55,33.72,72.38,3.63,1.7-18.06-39.14-14.79-50.56-16.73-67.63-11.49-69.49-89.38-4.21-101.23Z"/>
  <path class="cls-1" d="M1163.06,286.44l-39.82,117.76-7.38,2.71-36.56-8.47c-5.25-2.65-3.11-5.37-2.47-9.23,6.17-37.16,29.77-77.59,36.24-115.45l-40.32-13.01,8.8-33.36c2.89-4.69,5.92-1.48,9.38-1.15,13.31,1.27,124.81,29.42,128.67,34.26l-10.74,35.34-45.8-9.4Z"/>
  <path class="cls-1" d="M1483.72,462.22c-17.45,15.06-97.52,56.7-106.07,70.38-7.22,11.56,24.35,31.94,26.93,45.46-4.85,6.22-23.51,24.4-32.96,19.14-11.31-20.94-45.74-46.29-55.33-65.59-2.67-5.37-4.26-7.63-1.18-13.57,7.52-14.49,123.38-79.27,145.71-91.54,8.23,4.64,27.82,28.29,22.9,35.71Z"/>
  <ellipse class="cls-1" cx="482.5" cy="737.79" rx="35.46" ry="31.22"/>
  <path class="cls-1" d="M1512.38,759.53c-36.42,32.13-88.24-25.67-47.11-47,39.68-20.58,74.26,23.06,47.11,47Z"/>
  <path class="cls-1" d="M723.35,461.74c-1.77,1.79-25.82,15.08-29.44,16.42-4.54,1.68-4.3,5.24-8.95-.67l-46.76-153.26c-.59-13.85,44.88-37.75,59.31-45.27l139.47,116.33c1.39,6.78-29.25,23.04-35.48,23.53-17.03,1.34-20.99-21.02-34.97-16.82-4.65,1.4-42.3,27.7-44.03,31.28-3.02,6.27,11.89,17.29.85,28.46ZM703.72,389.28l33.3-16.54-45.8-38.6,12.5,55.14Z"/>
</svg>