<?xml version="1.0" encoding="UTF-8"?>
<svg id="Camada_1" data-name="Camada 1" xmlns="http://www.w3.org/2000/svg" viewBox="0 0 2081.78 1426.59">
  <defs>
    <style>
      .cls-1 {
        fill: #e35526;
      }
    </style>
  </defs>
  <path class="cls-1" d="M1138.41,959.57c5.09,95-35.61,42.2-78.65,7.6-35.9-1.39-71.91-.74-107.85-.91-33.69-.16-69.18,3.33-103.73-.25-19.17-1.99-45.93-12.51-58.66-25.54-22.91-23.47-12.89-54.46-14.69-82.65-5.45-85.52-13.77-206.46-4.56-290.44,2.77-25.3,19.5-42.02,48.59-45.44,45.75-5.38,125.2-7.51,170.93-4.13,7.85.58,32.87,2.82,34.85,9.58-12.63,31.39,2.27,72.75,44.44,75.21,10.46.61,33.65-6.55,34.79,1.59-12.86,28.15,13.59,57.69,48.25,53.28,17.68-2.25,27.2-20.77,41.98.26l1.81,251.39c-4.79,26.78-27.89,44.93-57.51,50.45ZM1171.24,902.09v-229.75c-45.93,21.39-94.02-10.61-87.71-55.14-58.19,19.21-100.6-34.19-83.47-80.86l-189.12,11.72c-22.57,11.55-7.33,68.69-6.89,89.2,1.75,82.34-10.78,190.5-.27,268.59,3.09,22.96,27.57,36.09,52.26,38.53,64.93,6.41,142.31-4.87,208.65.07,11.11-.29,45.06,42.78,52.27,36.64l.54-39.92c24.16-5.56,49.16-14.73,53.73-39.08Z"/>
  <path class="cls-1" d="M557.6,1003.16l93.08-17.78,35.86,37.49c-37.22,26.28-71.58,58.75-110.29,83.14-30.08,18.96-32.49,8.95-45.99-18.34l64.89-55.05-85.78,25.52c-7.61-.34-22.16-13.71-22.89-20.18-1.62-14.33,51.1-84.52,46.01-89.93-14.16,6.91-72.02,51.46-83.43,46.21-6.51-2.99-20.17-24.4-14.81-31.47l144.13-84.59c1.42,15.93,18.78,23.15,28.14,34.88l-48.93,90.1Z"/>
  <path class="cls-1" d="M1300.21,1010.82l104.35,118.66-34.91,24.36-106.57-32.99c-3.8,2.73,52.55,58.94,54.33,71.86.96,6.97-1.8,4.35-5.38,6.25-5.59,2.97-25.48,13.88-29.56,13.19l-106.85-122.65,38.61-22.93,98.94,28.46-50.35-60.67c0-6.7,32.67-26.41,37.39-23.56Z"/>
  <path class="cls-1" d="M1425.9,889.21l4.16,36.74c-44.18-.41-64.63,50.91-27.16,73.58,44.77,27.08,96.17,1.95,70.97-44.11l-21.41,29.7c-8.52,1.21-28.1-10.42-30.19-17.62l39.65-63.04c140.65,42.53,26.04,210.56-89.94,129.66-68.13-47.53-35.63-147.23,53.92-144.9Z"/>
  <path class="cls-1" d="M627.76,540.64c8.13,12.26-24.76,38.71-38.01,35.64l-131.56-95.74,3.18-16.11c41.76-30.77,66.41-102.75,131.69-56.78,44.68,31.46,27.44,72.68-10.36,101.09l45.05,31.89ZM552.95,484.55c44.65-46.45-14.36-70.69-33.27-16.61l33.27,16.61Z"/>
  <path class="cls-1" d="M1309.14,352.59l-7.94,21.51,49.47,31.71c-30.07,48.64-39.15,17.49-77.88-1.3-7.92-.62-23.21,14.14-16.14,21.58,34.59,21.65,77.94,31.86,25.28,65.22-12.8-10.72-90.45-51.3-89.22-62.8l102.39-127.1c5.09-1.75,9.09.07,13.73,1.57,8.18,2.63,79,48.03,81.71,53.36,6.39,12.58-10.52,23.38-18.92,31.34l-62.47-35.09Z"/>
  <path class="cls-1" d="M907.11,217.34c22.68-4.12,77.05-.13,84.17,23.81,3.62,12.17-22.02,25.53-34.09,22.6-11.16-2.71-20.64-23.7-42.34-10.16-38.41,23.97,54.33,28.53,63.3,31.86,49.87,18.53,38.47,88.21-19.58,98.54-46.57,8.28-139.86-12.91-69.09-52.31,13.1,13.64,69.55,33.72,72.38,3.63,1.7-18.06-39.14-14.79-50.56-16.73-67.63-11.49-69.49-89.38-4.21-101.23Z"/>
  <path class="cls-1" d="M790.97,1116.92l-56.73-24.91c-8.39-.68-17.4,11.16-13.33,17.34l49.35,22.8c-16.35,62.21-38.33,13.53-78.87,7.23l-6.78,21.88,52.13,28.13-18.86,34.13-101.08-56.7,97.85-126.35,87.21,43.62c8.17,11.58-7.75,22.14-10.9,32.84Z"/>
  <path class="cls-1" d="M941.35,1117.44l-10.01,35.91-64.46-10.11-.52,19.93,53.96,9.49-4.29,32.21c-29.44,5.56-74.14-27.46-66,18.71l60.68,11.06-8.6,33.34-12.18,3.55-98.15-22.38,37.57-150c9.49-7.16,94.84,15.54,112.01,18.3Z"/>
  <path class="cls-1" d="M1163.06,286.44l-39.82,117.76-7.38,2.71-36.56-8.47c-5.25-2.65-3.11-5.37-2.47-9.23,6.17-37.16,29.77-77.59,36.24-115.45l-40.32-13.01,8.8-33.36c2.89-4.69,5.92-1.48,9.38-1.15,13.31,1.27,124.81,29.42,128.67,34.26l-10.74,35.34-45.8-9.4Z"/>
  <path class="cls-1" d="M1483.72,462.22c-17.45,15.06-97.52,56.7-106.07,70.38-7.22,11.56,24.35,31.94,26.93,45.46-4.85,6.22-23.51,24.4-32.96,19.14-11.31-20.94-45.74-46.29-55.33-65.59-2.67-5.37-4.26-7.63-1.18-13.57,7.52-14.49,123.38-79.27,145.71-91.54,8.23,4.64,27.82,28.29,22.9,35.71Z"/>
  <path class="cls-1" d="M1054.33,1150.21l12.89,118.97c-1.65,7.67-39.87,6.18-47.66,6.17-5.01-1.03-6.53-12.52-6.95-16.65-3.4-33.53-2.75-70.97-4.15-104.82l-41.99-1.68-3.25-25.54,9.73-5.86,112.97-6.31c24.21,32.05,6.52,39.97-31.58,35.71Z"/>
  <polygon class="cls-1" points="1150.13 1095.22 1212.86 1245.65 1167.48 1256.54 1108.95 1106.48 1150.13 1095.22"/>
  <ellipse class="cls-1" cx="482.5" cy="737.79" rx="35.46" ry="31.22"/>
  <path class="cls-1" d="M1512.38,759.53c-36.42,32.13-88.24-25.67-47.11-47,39.68-20.58,74.26,23.06,47.11,47Z"/>
  <path class="cls-1" d="M723.35,461.74c-1.77,1.79-25.82,15.08-29.44,16.42-4.54,1.68-4.3,5.24-8.95-.67l-46.76-153.26c-.59-13.85,44.88-37.75,59.31-45.27l139.47,116.33c1.39,6.78-29.25,23.04-35.48,23.53-17.03,1.34-20.99-21.02-34.97-16.82-4.65,1.4-42.3,27.7-44.03,31.28-3.02,6.27,11.89,17.29.85,28.46ZM703.72,389.28l33.3-16.54-45.8-38.6,12.5,55.14Z"/>
</svg>