<?xml version="1.0" encoding="UTF-8"?>
<svg id="Camada_1" data-name="Camada 1" xmlns="http://www.w3.org/2000/svg" viewBox="0 0 1779.56 1206.78">
  <defs>
    <style>
      .cls-1 {
        fill: #e35526;
      }
    </style>
  </defs>
  <path class="cls-1" d="M0,616.64c7.39-22.54,122.22-21.57,134.14-5.48l42.26,192.18c54.99-107.92-7.58-252.88,182.54-192.39l3.17,367.68-16.01,15.14-68.05,1.41v-252.36l-55.51,235.3c-12.92,27.6-55.8,16.77-82.41,15.98l-54.57-231.09v232.17H0v-378.55Z"/>
  <path class="cls-1" d="M502.68,429.84l-85.09.58-11.73,79.71-106.48.57L379.43,56.19l12.28-8.6,138.73,7.79,90.09,430.16c-2.76,38.67-78.49,26.47-107.89,20.7l-9.97-76.4ZM481.29,339.07c4.67-4.45-9.31-107.32-12.22-124.81-2.24-13.42-3.79-54.81-19.8-56.88l-21.45,181.6,53.47.09Z"/>
  <path class="cls-1" d="M0,61.44c10.65-32.57,190.57-13.32,228.47,6.42,119.94,62.5,71.27,342.44-110.88,291.32l-9.96,147.06c-33.46,6.07-83.16,14.77-107.62-10.73V61.44ZM117.68,268.4c92.63,18.43,88.1-147.08,0-131.29v131.29Z"/>
  <path class="cls-1" d="M930.45,177.57l-106.57-.47-16.63-49.99c-115.4,66.71,82.79,113.42,116.65,182.74,114.07,233.57-300.73,302.99-260.91,49.33h107.04s1.53,59.01,1.53,59.01l34.88,11.14c78-106.46-105.07-117.68-135.15-204.06C595.27,6.92,953.67-28.94,930.45,177.57Z"/>
  <path class="cls-1" d="M1497.19,46.3c40.23,125.78-17.4,94.14-117.82,106.75l.13,75,107.05-.1-4.72,91.52-91.85,3.79-10.61,80.62c94.14,8.58,170.85-9.92,112.48,106.77h-203.19l-16.04-15.14V61.44l16.04-15.14h208.54Z"/>
  <path class="cls-1" d="M1240.53,601.5l91.19,9.82,79.92,192.07v-186.75c20.7-23.58,66.4-22.62,85.55,0v378.55l-91.22-9.79-79.89-192.1v201.89h-85.55v-393.69Z"/>
  <path class="cls-1" d="M1048.03,147.24l-74.91.05,1.55-84.45,16.04-15.13,232.01-1.82c22.94,5.05,21.26,82.31,5.58,99.93l-73.31,1.52c21.13,112.89,10.45,238.17,6.02,353.85l-112.97,9.45V147.24Z"/>
  <path class="cls-1" d="M1764.55,939.66c-19.19,84.21-211.8,107.03-225.09-29.8-4.69-48.34-6.19-226.77,12.59-261.63,61.44-114.05,260.33-42.11,212.42,94.56l-75.11-4.38-11.34-65.15-26.02-8.57-20.94,17.69c-11.23,24.09-8.74,162.35-6.05,197.19,2.17,28.12,7.15,76.13,43.86,50.58l8.65-12.29-9.26-124.6,96.3.05c-6.54,42.98,9.01,106.82,0,146.37Z"/>
  <path class="cls-1" d="M1668.3,409.7c95.63-13.01,140.39,12.06,90.9,100.95h-208.54V61.44l17.72-13.52c13.53-2.85,27.34-2.24,41.1-2.24,21.92,0,45.25-3.37,58.82,15.76v348.26Z"/>
  <polygon class="cls-1" points="582.83 601.5 597.19 618.2 598.92 682.3 491.88 682.2 491.88 752.97 578.17 757.32 588.23 833.72 491.88 833.62 491.88 914.48 588.86 918.83 598.88 995.18 411.73 995.18 395.69 980.04 395.69 616.64 411.73 601.5 582.83 601.5"/>
  <path class="cls-1" d="M807.41,601.5l14.36,16.7,1.73,64.1-96.35-.1v75.73s75.54-.82,75.54-.82l10.11,76.6-85.65-.1.16,90.9c78.78-28.36,108.29-10.27,96.14,70.67h-192.5v-378.55l16.04-15.14h160.41Z"/>
  <path class="cls-1" d="M1053.38,601.5l14.36,16.7,1.73,64.1-64.21-.04v312.93h-96.25v-312.93l-59.5-9.42c-8.57-23.57-11.74-54.77,11.37-71.34h192.5Z"/>
  <path class="cls-1" d="M1197.75,995.18h-96.25v-378.55c21.37-23.51,74.88-23.51,96.25,0v378.55Z"/>
</svg>