<?xml version="1.0" encoding="UTF-8"?>
<svg id="Camada_1" data-name="Camada 1" xmlns="http://www.w3.org/2000/svg" viewBox="0 0 1888 1493.01">
  <defs>
    <style>
      .cls-1 {
        fill: #e35526;
      }
    </style>
  </defs>
  <path class="cls-1" d="M533.31,679.77l-90.27.6-12.44,83.43-112.97.6,84.92-475.74,13.03-9,147.18,8.15,95.58,450.26c-2.93,40.48-83.27,27.71-114.46,21.67l-10.57-79.97ZM510.62,584.76c4.96-4.66-9.88-112.33-12.97-130.64-2.37-14.04-4.02-57.37-21.01-59.53l-22.76,190.08,56.73.09Z"/>
  <path class="cls-1" d="M0,294.16c11.3-34.09,202.18-13.94,242.39,6.72,127.25,65.42,75.61,358.44-117.64,304.92l-10.57,153.93c-35.5,6.35-88.23,15.46-114.18-11.24v-454.34ZM124.86,510.79c98.27,19.29,93.46-153.95,0-137.42v137.42Z"/>
  <path class="cls-1" d="M987.15,415.72l-113.06-.49-17.64-52.33c-122.43,69.83,87.84,118.72,123.75,191.28,121.02,244.48-319.05,317.14-276.81,51.63h113.57s1.62,61.76,1.62,61.76l37.01,11.66c82.76-111.43-111.47-123.18-143.38-213.59-80.67-228.54,299.58-266.09,274.94-49.92Z"/>
  <path class="cls-1" d="M1588.43,278.31c42.68,131.66-18.46,98.53-125,111.74l.14,78.5,113.57-.11-5.01,95.8-97.45,3.97-11.26,84.38c99.87,8.98,181.26-10.39,119.33,111.75h-215.57l-17.02-15.85v-454.34l17.02-15.85h221.25Z"/>
  <path class="cls-1" d="M1111.9,383.97l-79.48.05,1.64-88.4,17.02-15.84,246.15-1.91c24.34,5.29,22.56,86.15,5.92,104.6l-77.78,1.59c22.42,118.16,11.09,249.29,6.39,370.38l-119.85,9.89v-380.38Z"/>
  <path class="cls-1" d="M1769.96,658.69c101.46-13.61,148.95,12.62,96.44,105.66h-221.25v-470.19l18.8-14.15c14.35-2.98,29-2.35,43.61-2.35,23.25,0,48.01-3.52,62.4,16.5v364.53Z"/>
</svg>